<svg xmlns="http://www.w3.org/2000/svg" viewBox="0 0 1200 800">
  <defs>
    <linearGradient id="bgGrad" x1="0%" y1="0%" x2="100%" y2="100%">
      <stop offset="0%" style="stop-color:#1a1625"/>
      <stop offset="100%" style="stop-color:#0d0d12"/>
    </linearGradient>
    <linearGradient id="accentGrad" x1="0%" y1="0%" x2="100%" y2="100%">
      <stop offset="0%" style="stop-color:#aa3bff"/>
      <stop offset="100%" style="stop-color:#7c3aed"/>
    </linearGradient>
    <linearGradient id="screenGrad" x1="0%" y1="0%" x2="0%" y2="100%">
      <stop offset="0%" style="stop-color:#16171d"/>
      <stop offset="100%" style="stop-color:#1f2028"/>
    </linearGradient>
  </defs>
  <rect width="1200" height="800" fill="url(#bgGrad)"/>
  <rect x="0" y="0" width="6" height="800" fill="url(#accentGrad)"/>
  <rect x="80" y="60" width="700" height="680" rx="16" fill="#0d0d12"/>
  <rect x="100" y="80" width="660" height="50" rx="8" fill="#1f2028"/>
  <circle cx="130" cy="105" r="10" fill="#ef4444"/>
  <circle cx="160" cy="105" r="10" fill="#eab308"/>
  <circle cx="190" cy="105" r="10" fill="#22c55e"/>
  <rect x="120" y="160" width="200" height="30" rx="6" fill="#aa3bff"/>
  <rect x="340" y="165" width="100" height="20" rx="4" fill="#2e303a"/>
  <rect x="120" y="210" width="620" height="120" rx="8" fill="#1f2028"/>
  <rect x="140" y="225" width="150" height="20" rx="4" fill="#c084fc"/>
  <rect x="140" y="255" width="200" height="14" rx="3" fill="#2e303a"/>
  <rect x="140" y="280" width="180" height="14" rx="3" fill="#2e303a"/>
  <rect x="500" y="225" width="80" height="24" rx="4" fill="#22c55e"/>
  <rect x="500" y="260" width="100" height="14" rx="3" fill="#2e303a"/>
  <rect x="120" y="350" width="620" height="120" rx="8" fill="#1f2028"/>
  <rect x="140" y="365" width="150" height="20" rx="4" fill="#c084fc"/>
  <rect x="140" y="395" width="200" height="14" rx="3" fill="#2e303a"/>
  <rect x="140" y="420" width="180" height="14" rx="3" fill="#2e303a"/>
  <rect x="500" y="365" width="80" height="24" rx="4" fill="#22c55e"/>
  <rect x="500" y="400" width="100" height="14" rx="3" fill="#2e303a"/>
  <rect x="120" y="490" width="620" height="120" rx="8" fill="#1f2028"/>
  <rect x="140" y="505" width="150" height="20" rx="4" fill="#c084fc"/>
  <rect x="140" y="535" width="200" height="14" rx="3" fill="#2e303a"/>
  <rect x="140" y="560" width="180" height="14" rx="3" fill="#2e303a"/>
  <rect x="500" y="505" width="80" height="24" rx="4" fill="#ef4444"/>
  <rect x="500" y="540" width="100" height="14" rx="3" fill="#2e303a"/>
  <rect x="120" y="630" width="300" height="40" rx="8" fill="url(#accentGrad)"/>
  <text x="270" y="658" font-family="system-ui, sans-serif" font-size="18" font-weight="600" fill="#ffffff" text-anchor="middle">Priv8sus Dashboard</text>
  <text x="860" y="200" font-family="system-ui, sans-serif" font-size="48" font-weight="700" fill="#ffffff">Dashboard</text>
  <text x="860" y="260" font-family="system-ui, sans-serif" font-size="24" fill="#c084fc">Real NBA Predictions</text>
  <text x="860" y="320" font-family="system-ui, sans-serif" font-size="20" fill="#9ca3af">Your predictions, your data.</text>
  <text x="860" y="360" font-family="system-ui, sans-serif" font-size="20" fill="#9ca3af">100% private.</text>
  <rect x="860" y="420" width="240" height="50" rx="8" fill="url(#accentGrad)"/>
  <text x="980" y="453" font-family="system-ui, sans-serif" font-size="20" font-weight="600" fill="#ffffff" text-anchor="middle">Try Free</text>
  <text x="980" y="520" font-family="system-ui, sans-serif" font-size="18" fill="#6b6375" text-anchor="middle">priv8sus.com</text>
</svg>